<?xml version="1.0" encoding="utf-8"?>
<!-- Generator: Adobe Illustrator 22.1.0, SVG Export Plug-In . SVG Version: 6.00 Build 0)  -->
<svg version="1.1"
	 id="svg8" class="img-svg" inkscape:export-filename="G:\Users\suitedoalex\sites\boleto-logo-0.png" inkscape:export-xdpi="96" inkscape:export-ydpi="96" inkscape:version="0.92.2 (5c3e80d, 2017-08-06)" sodipodi:docname="boleto-logo.svg" xmlns:cc="http://creativecommons.org/ns#" xmlns:dc="http://purl.org/dc/elements/1.1/" xmlns:inkscape="http://www.inkscape.org/namespaces/inkscape" xmlns:rdf="http://www.w3.org/1999/02/22-rdf-syntax-ns#" xmlns:sodipodi="http://sodipodi.sourceforge.net/DTD/sodipodi-0.dtd" xmlns:svg="http://www.w3.org/2000/svg"
	 xmlns="http://www.w3.org/2000/svg" xmlns:xlink="http://www.w3.org/1999/xlink" x="0px" y="0px" viewBox="0 0 60 42.5"
	 style="enable-background:new 0 0 60 42.5;" xml:space="preserve">
<style type="text/css">
	.st0{fill:#F9F9F9;}
	.st1{fill:#010101;}
</style>
<g>
	
		<path id="rect2" inkscape:export-filename="G:\Users\suitedoalex\sites\boleto-logo-5.png" inkscape:export-xdpi="1.4072399" inkscape:export-ydpi="1.4072399" class="st0" d="
		M2.2,0h55.6C59,0,60,1.1,60,2.4v37.6c0,1.3-1,2.4-2.2,2.4H2.2C1,42.5,0,41.4,0,40.1V2.4C0,1.1,1,0,2.2,0z"/>
	<g>
		
			<path id="path4" inkscape:connector-curvature="0" inkscape:export-filename="G:\Users\suitedoalex\sites\boleto-logo-5.png" inkscape:export-xdpi="1.4072399" inkscape:export-ydpi="1.4072399" class="st1" d="
			M7.4,7.8h0.5v13.6H7.4V7.8z M8.5,7.8H9v13.6H8.5V7.8z M11.5,7.8H12v13.6h-0.5V7.8z M21.5,7.8H22v13.6h-0.5V7.8z M24.9,7.8h0.5
			v13.6h-0.5V7.8z M28.1,7.8h0.5v13.6h-0.5V7.8z M29,7.8h0.5v13.6H29V7.8z M29.8,7.8h0.5v13.6h-0.5V7.8z M30.7,7.8h0.5v13.6h-0.5
			V7.8z M31.7,7.8h0.5v13.6h-0.5V7.8z M34.3,7.8h0.5v13.6h-0.5V7.8z M40.8,7.8h0.5v13.6h-0.5V7.8z M47.5,7.8H48v13.6h-0.5V7.8z
			 M49.4,7.8h0.5v13.6h-0.5V7.8z M50.7,7.8h0.5v13.6h-0.5V7.8z M51.5,7.8H52v13.6h-0.5V7.8z M14.9,7.8h0.5v13.6h-0.5V7.8z M9.8,7.8
			h0.9v13.6H9.8V7.8z M15.9,7.8h0.9v13.6h-0.9V7.8z M20.2,7.8h0.9v13.6h-0.9V7.8z M22.4,7.8h0.9v13.6h-0.9V7.8z M25.8,7.8h0.9v13.6
			h-0.9V7.8z M35.7,7.8h1.4v13.6h-1.4V7.8z M37.5,7.8h1.1v13.6h-1.1V7.8z M39.5,7.8h0.9v13.6h-0.9V7.8z M42.1,7.8h1.5v13.6h-1.5V7.8
			z M45.2,7.8h1.5v13.6h-1.5V7.8z M12.6,7.8h1.9v13.6h-1.9V7.8z M17.4,7.8h1.4v13.6h-1.4V7.8z"/>
		
			<path id="path6" inkscape:connector-curvature="0" inkscape:export-filename="G:\Users\suitedoalex\sites\boleto-logo-5.png" inkscape:export-xdpi="1.4072399" inkscape:export-ydpi="1.4072399" d="
			M8.1,33.6v-7.8H11c0.5,0,1,0.1,1.4,0.2s0.6,0.4,0.8,0.7c0.2,0.3,0.3,0.7,0.3,1s-0.1,0.7-0.3,0.9c-0.2,0.3-0.5,0.6-0.8,0.7
			c0.4,0.1,0.8,0.4,1.1,0.7c0.3,0.3,0.4,0.8,0.4,1.2c0,0.4-0.1,0.7-0.2,1c-0.1,0.3-0.3,0.5-0.6,0.7s-0.5,0.3-0.9,0.4
			s-0.8,0.1-1.3,0.1H8.1V33.6z M9.1,29.1h1.7c0.3,0,0.7,0,1-0.1c0.2-0.1,0.4-0.2,0.6-0.4c0.1-0.2,0.2-0.4,0.2-0.7
			c0-0.2-0.1-0.5-0.2-0.7c-0.1-0.2-0.3-0.3-0.5-0.4c-0.4-0.1-0.8-0.1-1.2-0.1H9.1V29.1z M9.1,32.7H11c0.2,0,0.5,0,0.7,0
			s0.4-0.1,0.6-0.2c0.2-0.1,0.3-0.3,0.4-0.4c0.1-0.2,0.2-0.4,0.2-0.7c0-0.3-0.1-0.5-0.2-0.8c-0.2-0.2-0.4-0.4-0.6-0.5
			C11.7,30,11.3,30,11,30H9.1V32.7z M15.5,29.8c-0.1-1.1,0.3-2.2,1-3c0.7-0.7,1.7-1.1,2.7-1.1c0.7,0,1.4,0.2,1.9,0.5
			c0.6,0.3,1,0.8,1.3,1.4c0.3,0.7,0.5,1.4,0.5,2.1s-0.2,1.5-0.5,2.1c-0.3,0.6-0.8,1.1-1.4,1.4s-1.2,0.5-1.9,0.5
			c-0.7,0-1.4-0.2-2-0.5s-1-0.9-1.3-1.5C15.7,31.1,15.5,30.5,15.5,29.8L15.5,29.8z M16.6,29.8c0,0.8,0.2,1.6,0.8,2.2
			c0.5,0.5,1.2,0.8,1.9,0.8c0.7,0,1.4-0.3,1.9-0.8c0.5-0.7,0.8-1.5,0.8-2.3c0-0.6-0.1-1.1-0.3-1.7c-0.2-0.5-0.5-0.8-0.9-1.1
			c-0.4-0.3-0.9-0.4-1.4-0.4c-0.7,0-1.4,0.3-1.9,0.8C16.8,28,16.5,28.9,16.6,29.8L16.6,29.8z M24.7,33.6v-7.8h1v6.9h3.8v0.9H24.7z
			 M31.2,33.6v-7.8h5.6v0.9h-4.6v2.4h4.3V30h-4.3v2.7H37v0.9H31.2z M40.8,33.6v-6.9h-2.6v-0.9h6.2v0.9h-2.6v6.9H40.8z M45.4,29.8
			c-0.1-1.1,0.3-2.2,1-3c0.7-0.7,1.7-1.1,2.7-1.1c0.7,0,1.4,0.2,1.9,0.5c0.6,0.3,1,0.8,1.3,1.4c0.3,0.7,0.5,1.4,0.5,2.1
			s-0.2,1.5-0.5,2.1c-0.3,0.6-0.8,1.1-1.4,1.4c-0.6,0.3-1.2,0.5-1.9,0.5s-1.4-0.2-2-0.5s-1-0.9-1.3-1.5
			C45.6,31.1,45.4,30.5,45.4,29.8L45.4,29.8z M46.5,29.8c0,0.8,0.2,1.6,0.8,2.2c0.5,0.5,1.2,0.8,1.9,0.8s1.4-0.3,1.9-0.8
			c0.5-0.7,0.8-1.5,0.8-2.3c0-0.6-0.1-1.1-0.3-1.7c-0.2-0.5-0.5-0.8-0.9-1.1c-0.4-0.3-0.9-0.4-1.4-0.4c-0.7,0-1.4,0.3-1.9,0.8
			C46.7,28,46.4,28.9,46.5,29.8L46.5,29.8z"/>
	</g>
</g>
</svg>
