<?xml version="1.0" encoding="iso-8859-1"?>
<!-- Generator: Adobe Illustrator 19.0.0, SVG Export Plug-In . SVG Version: 6.00 Build 0)  -->
<svg xmlns="http://www.w3.org/2000/svg" xmlns:xlink="http://www.w3.org/1999/xlink" version="1.1" id="Capa_1" x="0px" y="0px" viewBox="0 0 479.978 479.978" style="enable-background:new 0 0 479.978 479.978;" xml:space="preserve" width="512px" height="512px">
<g>
	<g>
		<path d="M430.36,92.09c-7.768-12.118-16.822-23.362-27.005-33.535c-78.118-78.091-204.751-78.07-282.843,0.048    C89.581,89.545,69.649,129.776,63.771,173.13l-43.664,96.992c-5.443,12.086-0.059,26.296,12.027,31.739    c3.085,1.39,6.429,2.111,9.813,2.117h20c4.418,0,8,3.582,8,8v64c0,13.255,10.745,24,24,24h56c4.418,0,8,3.582,8,8v48    c0,13.255,10.745,24,24,24h160c13.255,0,24-10.745,24-24v-80.8c0.062-2.837,1.571-5.445,4-6.912    C462.894,308.685,489.942,185.037,430.36,92.09z M392.051,330.082c-9.306,9.309-19.599,17.576-30.696,24.656    c-7.069,4.394-11.379,12.117-11.408,20.44v80.8c0,4.418-3.582,8-8,8h-160c-4.418,0-8-3.582-8-8v-48c0-13.255-10.745-24-24-24h-56    c-4.418,0-8-3.582-8-8v-64c0-13.255-10.745-24-24-24h-20c-4.418-0.003-7.998-3.587-7.995-8.005    c0.001-1.132,0.242-2.251,0.707-3.283l44.184-98.072c0.324-0.719,0.539-1.482,0.64-2.264    C92.518,75.573,184.783,4.441,285.564,17.475c100.781,13.034,171.914,105.3,158.88,206.081    C439.229,263.878,420.805,301.337,392.051,330.082z" fill="#AA33AA"/>
	</g>
</g>
<g>
	<g>
		<path d="M357.891,263.858c-0.424-3.674-3.312-6.579-6.984-7.024c-1.784-0.2-44.496-5.072-68.8,19.264    c-5.135,5.233-9.258,11.371-12.16,18.104V227.29l71.2-71.2c18.747-18.745,18.749-49.137,0.004-67.884    c-18.745-18.747-49.137-18.749-67.884-0.004l-11.32,11.32L250.635,88.21c-18.747-18.747-49.141-18.747-67.888,0    c-18.747,18.747-18.747,49.141,0,67.888l71.2,71.2v65.112c-2.817-6.038-6.642-11.552-11.312-16.304    c-24.36-24.352-67.056-19.48-68.848-19.264c-3.659,0.442-6.543,3.325-6.984,6.984c-0.216,1.808-5.08,44.496,19.264,68.848    c17.12,17.128,43.336,19.792,58,19.792c4.76,0,8.264-0.28,9.88-0.432v63.944c0,4.418,3.582,8,8,8s8-3.582,8-8v-64    c3.548,0.369,7.113,0.542,10.68,0.52c14.664,0,40.872-2.664,58.008-19.792C362.979,308.354,358.115,265.666,357.891,263.858z     M246.379,336.434c-11.424,0.232-35.008-1.088-49-15.08c-13.936-13.928-15.296-37.552-15.056-49    c11.344-0.272,35.064,1.12,49,15.056C245.259,301.346,246.619,325.01,246.379,336.434z M261.947,212.666l-67.88-67.888    c-12.476-12.506-12.476-32.75,0-45.256c12.508-12.471,32.748-12.471,45.256,0l16.968,16.968c3.124,3.123,8.188,3.123,11.312,0    l16.968-16.968c12.497-12.497,32.759-12.497,45.256,0c12.497,12.497,12.497,32.759,0,45.256L261.947,212.666z M327.323,321.354    c-13.944,13.944-37.6,15.312-49.024,15.056c-0.256-11.424,1.08-35,15.08-49s37.6-15.272,49.008-15.056    C342.619,283.802,341.251,307.426,327.323,321.354z" fill="#AA33AA"/>
	</g>
</g>
<g>
</g>
<g>
</g>
<g>
</g>
<g>
</g>
<g>
</g>
<g>
</g>
<g>
</g>
<g>
</g>
<g>
</g>
<g>
</g>
<g>
</g>
<g>
</g>
<g>
</g>
<g>
</g>
<g>
</g>
</svg>
