<?xml version="1.0" encoding="utf-8"?>
<!-- Generator: Adobe Illustrator 22.1.0, SVG Export Plug-In . SVG Version: 6.00 Build 0)  -->
<svg version="1.1" id="Layer_1" xmlns="http://www.w3.org/2000/svg" xmlns:xlink="http://www.w3.org/1999/xlink" x="0px" y="0px"
	 viewBox="0 0 60 45.6" style="enable-background:new 0 0 60 45.6;" xml:space="preserve">
<style type="text/css">
	.st0{fill:#FFFFFF;}
</style>
<g>
	<g>
		<path class="st0" d="M60,39.4c0-1.5-1.2-2.6-2.6-2.6h-2.5V23.7H57c1,0,1.8-0.8,1.8-1.8v-8.3c0-1-0.8-1.8-1.8-1.8h-2.2V9.3
			c0-5.1-4.2-9.3-9.3-9.3h-4.3c-0.5,0-0.9,0.4-0.9,0.9s0.4,0.9,0.9,0.9h4.3c4.2,0,7.6,3.4,7.6,7.6v27.5H36.8V21.3
			c0-1.8-1.4-3.2-3.2-3.2h-9.4c-1.4,0-2.7,0.9-3.1,2.3l-1.8,5.8c-0.2,0.6-0.8,1-1.4,1H8.4c-0.8,0-1.5-0.7-1.5-1.5v-2.6
			c0-0.5-0.4-0.9-0.9-0.9s-0.9,0.4-0.9,0.9v2.6c0,1.8,1.4,3.2,3.2,3.2H10V33c0,0.5,0.4,0.9,0.9,0.9s0.9-0.4,0.9-0.9v-4.1h6.1
			c1.4,0,2.7-0.9,3.1-2.3l1.8-5.8c0.2-0.6,0.8-1,1.4-1h9.4c0.8,0,1.5,0.7,1.5,1.5v15.5H2.6C1.2,36.8,0,38,0,39.4
			c0,1.3,0.9,2.4,2.2,2.6v2.7c0,0.5,0.4,0.9,0.9,0.9h34.5c0.5,0,0.9-0.4,0.9-0.9s-0.4-0.9-0.9-0.9H3.9v-1.8h52.1v1.8H41.3
			c-0.5,0-0.9,0.4-0.9,0.9s0.4,0.9,0.9,0.9H57c0.5,0,0.9-0.4,0.9-0.9V42C59.1,41.8,60,40.7,60,39.4z M57,13.5
			C57,13.5,57.1,13.6,57,13.5l0.1,8.4c0,0,0,0.1-0.1,0.1h-2.2v-8.4H57z M57.4,40.3H2.6c-0.5,0-0.9-0.4-0.9-0.9s0.4-0.9,0.9-0.9h54.7
			c0.5,0,0.9,0.4,0.9,0.9S57.8,40.3,57.4,40.3z"/>
		<path class="st0" d="M6,20.2c0.5,0,0.9-0.4,0.9-0.9V6.5c0-2.6,2.1-4.7,4.7-4.7h0.6v15.9c0,1.5,1.2,2.6,2.6,2.6s2.6-1.2,2.6-2.6
			V1.8h3v1.8c0,1,0.8,1.8,1.8,1.8h12.2c1,0,1.8-0.8,1.8-1.8V1.8h1.2c0.5,0,0.9-0.4,0.9-0.9S38,0,37.5,0H11.7C8.1,0,5.2,2.9,5.2,6.5
			v12.8C5.2,19.8,5.5,20.2,6,20.2L6,20.2z M34.6,3.6C34.6,3.6,34.5,3.6,34.6,3.6L22.3,3.6c0,0-0.1,0-0.1-0.1V1.8h12.3V3.6z
			 M15.8,1.8v15.9c0,0.5-0.4,0.9-0.9,0.9S14,18.1,14,17.6V1.8H15.8z"/>
		<path class="st0" d="M49.7,11.5c0-2.7-2.2-5-5-5s-5,2.2-5,5s2.2,5,5,5S49.7,14.2,49.7,11.5z M44.7,14.7c-1.8,0-3.2-1.4-3.2-3.2
			s1.4-3.2,3.2-3.2s3.2,1.4,3.2,3.2S46.5,14.7,44.7,14.7z"/>
		<path class="st0" d="M41.7,24c0,1.6,1.3,3,3,3s3-1.3,3-3s-1.3-3-3-3S41.7,22.4,41.7,24z M45.9,24c0,0.7-0.6,1.2-1.2,1.2
			s-1.2-0.6-1.2-1.2s0.6-1.2,1.2-1.2S45.9,23.3,45.9,24z"/>
	</g>
</g>
</svg>
