<?xml version="1.0"?>
<svg xmlns="http://www.w3.org/2000/svg" id="Layer_1" height="512px" viewBox="0 0 512 512" width="512px" data-name="Layer 1"><path d="m450.3 120h-43.927a6 6 0 0 0 0 12h43.927a6 6 0 0 0 0-12z" fill="#AA33AA"/><path d="m391.186 126a6 6 0 0 0 -6-6h-36.359a6 6 0 0 0 0 12h36.359a6 6 0 0 0 6-6z" fill="#AA33AA"/><path d="m311.7 132h16.289a6 6 0 0 0 0-12h-16.289a6 6 0 0 0 0 12z" fill="#AA33AA"/><path d="m450.3 97h-7.363a6 6 0 0 0 0 12h7.363a6 6 0 0 0 0-12z" fill="#AA33AA"/><path d="m399.926 97a6 6 0 0 0 0 12h22.274a6 6 0 0 0 0-12z" fill="#AA33AA"/><path d="m311.7 109h67.35a6 6 0 0 0 0-12h-67.35a6 6 0 0 0 0 12z" fill="#AA33AA"/><path d="m440.305 81h10a6 6 0 0 0 0-12h-10a6 6 0 0 0 0 12z" fill="#AA33AA"/><path d="m343.913 81h75.419a6 6 0 0 0 0-12h-75.419a6 6 0 0 0 0 12z" fill="#AA33AA"/><path d="m311.7 81h11.336a6 6 0 0 0 0-12h-11.336a6 6 0 0 0 0 12z" fill="#AA33AA"/><path d="m430.435 143h-18.215a6 6 0 0 0 0 12h18.215a6 6 0 0 0 0-12z" fill="#AA33AA"/><path d="m391.456 143h-10.54a6 6 0 1 0 0 12h10.54a6 6 0 0 0 0-12z" fill="#AA33AA"/><path d="m311.7 155h47.915a6 6 0 0 0 0-12h-47.915a6 6 0 0 0 0 12z" fill="#AA33AA"/><path d="m497.36 430.224-33.36-66.224v-179.775a24.373 24.373 0 0 0 15-22.7v-99.744c0-13.498-10.58-24.781-24.079-24.781h-147.842c-13.499 0-24.079 11.283-24.079 24.781v30.219h-199.077a35.891 35.891 0 0 0 -35.923 35.9v236.1l-33.342 66.253a6.057 6.057 0 0 0 -.647 2.747h-.011v5.7c0 19.85 16.149 36.3 36 36.3h412c19.851 0 36-16.45 36-36.3v-5.7h-.011a6.077 6.077 0 0 0 -.629-2.776zm-202.36-368.443c0-6.881 5.2-12.781 12.079-12.781h147.842c6.879 0 12.079 5.9 12.079 12.781v99.743a12.154 12.154 0 0 1 -12.079 12.476h-88.28c-11.384 0-19.978 4.815-24.853 13.921-2.917 5.449-4.035 11.509-4.623 16.453-3.9-3.5-8.462-9.7-10.328-20.264a12.335 12.335 0 0 0 -12.237-10.11h-7.52a12.154 12.154 0 0 1 -12.08-12.476zm12.079 124.219h7.52a.511.511 0 0 1 .422.2c4.266 24.147 20.1 31.834 24.032 33.387a6.055 6.055 0 0 0 3.657.616 6.273 6.273 0 0 0 5.143-4.752 35.347 35.347 0 0 0 .842-5.9c1.16-12.408 3.405-23.551 17.946-23.551h55.359v149h-136.991l.053-31.118a34.326 34.326 0 0 0 -18.9-27.809l-14.8-5.373c6.566-8.708 9.589-20.784 7.7-32.6l-1.5-26.422a15.334 15.334 0 0 0 2.371-12.485 12.872 12.872 0 0 0 -6.074-8.16l.051-14.114a46.933 46.933 0 0 0 -41.49-46.919h70.58v31.524a24.164 24.164 0 0 0 24.079 24.476zm-54.079 127.622a6 6 0 0 0 -6 6v15.378h-17.4l-6.93-33.663a5.942 5.942 0 0 0 6.377-2.179l14.022-18.7 15.14 5.489a22.127 22.127 0 0 1 12.234 10.483q.279.541.532 1.1a24.164 24.164 0 0 1 2.025 9.98v27.49h-14v-15.378a6 6 0 0 0 -6-6zm-92 0a6 6 0 0 0 -6 6v15.378h-14v-27.489a24.159 24.159 0 0 1 2.023-9.978c.167-.37.345-.736.53-1.1a22.126 22.126 0 0 1 12.247-10.485l15.167-5.486 14 18.7a5.969 5.969 0 0 0 7.33 1.83l-6.997 34.008h-18.3v-15.378a6 6 0 0 0 -6-6zm-32.009 21.378h-6.991v-21.067a99.543 99.543 0 0 1 8.257-39.785l2.313-5.327c.338.017.675.051 1.017.051a19.707 19.707 0 1 0 -12.245-4.308l-2.1 4.814a111.476 111.476 0 0 0 -9.242 44.555v21.067h-21v-205h112.536a47.021 47.021 0 0 0 -41.527 46.65l.041 14.012v.137l.006.284a12.879 12.879 0 0 0 -5.994 8.116 15.316 15.316 0 0 0 3.876 14.292l-2.628 23.695c-2.513 12.032.119 24.579 6.622 33.764l-14.272 5.19a34.284 34.284 0 0 0 -18.724 27.742zm-3.057-85.784a7.656 7.656 0 1 1 7.656 7.656 7.664 7.664 0 0 1 -7.656-7.656zm119.72-43.129a6.1 6.1 0 0 0 -4.965 6.007c0 17.507-14.077 32.906-30.125 32.906h-7.128c-16.048 0-30.125-15.4-30.125-32.962a6.022 6.022 0 0 0 -4.965-5.93 3.3 3.3 0 0 1 -2.72-3.256 3.389 3.389 0 0 1 .095-.8 1.019 1.019 0 0 1 .984-.783 5.988 5.988 0 0 0 3.563-1.607 12.23 12.23 0 0 0 12.3-6.459c6.476-.377 17.28-1.277 28.4-7.6a55.757 55.757 0 0 0 32.281 13.525 5.969 5.969 0 0 0 4.046 2.146 1.019 1.019 0 0 1 .984.78 3.35 3.35 0 0 1 .095.794 3.285 3.285 0 0 1 -2.72 3.239zm-2.487 55.465-2.4-8.285a5.991 5.991 0 0 0 -6.681-4.254 45.462 45.462 0 0 0 12.762-14.557l.338 5.3a31.764 31.764 0 0 1 -4.019 21.796zm-24.167-5.544v6.976l-11.953 12.063-12.047-12.565v-6.462a43.287 43.287 0 0 0 8.436.98h7.128a42.585 42.585 0 0 0 8.436-.992zm-39.17-7.056a5.908 5.908 0 0 0 -5.615 4.068l-3.307 9.792a32.263 32.263 0 0 1 -3.8-23.4l.494-4.154a45.4 45.4 0 0 0 12.228 13.694zm62.046-62.027a43.726 43.726 0 0 1 -20.915-8.631 67.715 67.715 0 0 0 13.1-16.811 6 6 0 0 0 -10.447-5.9c-13.6 24.07-32.532 25.128-42.7 25.7l-.149.008a10.721 10.721 0 0 0 -8.725 6.144l-.031-10.795a34.952 34.952 0 1 1 69.9.23zm-50.776 100.431-10.9-14.538 2.19-6.485 15.446 16.4zm15.269 4.79a1.206 1.206 0 0 1 2.363 0l8.644 42.854h-19.829zm9.9-9.341 15.845-16.291 1.792 6.173-11 14.669zm-156.269-154.905a23.877 23.877 0 0 1 23.923-23.9h199.077v14h-200.229a5.559 5.559 0 0 0 -5.771 5.7v216.856c0 3.313 2.458 6.444 5.771 6.444h345.458c3.313 0 5.771-3.131 5.771-6.444v-154.556h18v175h-392zm-3.271 245.1h398.542l27 53.7-154.426.028-6-18a9.866 9.866 0 0 0 -9.497-6.728h-112.698a9.989 9.989 0 0 0 -9.493 6.863l-6 18.137h-154.427zm405.271 90h-412a24.194 24.194 0 0 1 -24-24h162.49a6.007 6.007 0 0 0 5.7-4.12l6.91-20.88h109.8l6.91 20.743a5.939 5.939 0 0 0 5.7 4.049l162.49.091a24.128 24.128 0 0 1 -24 24.117z" fill="#AA33AA"/><path d="m395 228.692a6 6 0 0 0 6-6v-6.3a6 6 0 1 0 -12 0v6.3a6 6 0 0 0 6 6z" fill="#AA33AA"/><path d="m395 303.692a6 6 0 0 0 6-6v-56a6 6 0 0 0 -12 0v56a6 6 0 0 0 6 6z" fill="#AA33AA"/></svg>
