<?xml version="1.0"?>
<svg xmlns="http://www.w3.org/2000/svg" viewBox="0 0 512 512" width="512px" height="512px"><g id="Online_course" data-name="Online course"><path d="M464,64H112A40.058,40.058,0,0,0,72.683,96.683a40.1,40.1,0,0,0-32,32A40.058,40.058,0,0,0,8,168V408a40.045,40.045,0,0,0,40,40H400a40.058,40.058,0,0,0,39.317-32.683,40.1,40.1,0,0,0,32-32A40.058,40.058,0,0,0,504,344V104A40.045,40.045,0,0,0,464,64ZM24,168a24.027,24.027,0,0,1,24-24H400a24.027,24.027,0,0,1,24,24v8H24ZM424,408a24.027,24.027,0,0,1-24,24H48a24.027,24.027,0,0,1-24-24V192H424Zm32-32a24.038,24.038,0,0,1-16,22.624V168a40.045,40.045,0,0,0-40-40H57.376A24.038,24.038,0,0,1,80,112H432a24.027,24.027,0,0,1,24,24Zm32-32a24.038,24.038,0,0,1-16,22.624V136a40.045,40.045,0,0,0-40-40H89.376A24.038,24.038,0,0,1,112,80H464a24.027,24.027,0,0,1,24,24Z" fill="#AA33AA"/><circle cx="48" cy="160" r="8" fill="#AA33AA"/><circle cx="80" cy="160" r="8" fill="#AA33AA"/><circle cx="112" cy="160" r="8" fill="#AA33AA"/><path d="M136,360H312a8,8,0,0,0,8-8V224a8,8,0,0,0-8-8H136a8,8,0,0,0-8,8V352A8,8,0,0,0,136,360Zm8-128H304V344H144Z" fill="#AA33AA"/><path d="M204.1,302.983a8,8,0,0,0,8.095-.17l39-24a8,8,0,0,0,0-13.626l-39-24A8,8,0,0,0,200,248v48A8,8,0,0,0,204.1,302.983ZM216,262.316,231.736,272,216,281.684Z" fill="#AA33AA"/><path d="M280,312H264a8,8,0,0,0-16,0H168a8,8,0,0,0,0,16h80a8,8,0,0,0,16,0h16a8,8,0,0,0,0-16Z" fill="#AA33AA"/><path d="M136,384H312a8,8,0,0,0,0-16H136a8,8,0,0,0,0,16Z" fill="#AA33AA"/><path d="M136,408H248a8,8,0,0,0,0-16H136a8,8,0,0,0,0,16Z" fill="#AA33AA"/><path d="M280,392h-8a8,8,0,0,0,0,16h8a8,8,0,0,0,0-16Z" fill="#AA33AA"/></g></svg>
